# Blender 3.6.2
# www.blender.org
g CubeA_Mesh
v 1.000000 0.848232 -0.848232
v 1.000000 -0.848232 -0.848232
v -1.000000 1.426055 0.474611
v 1.000000 1.426055 0.474611
v -1.000000 1.000000 -1.000000
v -1.000000 -1.000000 -1.000000
v 1.000000 1.426055 -1.000000
v -1.000000 1.426055 -1.000000
v 1.000000 0.848232 0.322842
v 0.474611 0.474611 1.000000
v 0.474611 -0.474611 1.000000
v 1.000000 -0.848232 0.322842
v -0.474611 0.474611 1.000000
v -1.000000 1.000000 0.474611
v -0.474611 -0.474611 1.000000
v -1.000000 -1.000000 0.474611
v 1.000000 1.000000 -1.000000
v 1.000000 -1.000000 -1.000000
v 1.000000 -1.000000 0.474611
v 1.000000 1.000000 0.474611
v 1.000000 1.000000 -1.000000
v 1.000000 -1.000000 -1.000000
v 1.000000 -1.000000 0.474611
v 1.000000 1.000000 0.474611
v 0.035241 0.848232 -0.848232
v 0.035241 -0.848232 -0.848232
v 0.035241 -0.848232 0.322842
v 0.035241 0.848232 0.322842
vn -0.0000 -1.0000 -0.0000
vn -1.0000 -0.0000 -0.0000
vn -0.0000 1.0000 -0.0000
vn -0.0000 -0.0000 1.0000
vn -0.0000 -0.0000 -1.0000
vn -0.7071 -0.0000 0.7071
vn 0.7071 -0.0000 0.7071
vn -0.0000 0.7071 0.7071
vn -0.0000 -0.7071 0.7071
vn 1.0000 -0.0000 -0.0000
vt 0.375000 0.500000
vt 0.125000 0.684326
vt 0.125000 0.500000
vt 0.625000 0.065674
vt 0.625000 0.250000
vt 0.875000 0.500000
vt 0.625000 0.684326
vt 0.625000 0.500000
vt 0.375000 0.250000
vt 0.375000 0.065674
vt 0.559326 0.815674
vt 0.440674 0.934326
vt 0.440674 0.815674
vt 0.559326 0.934326
vt 0.375000 1.000000
vt 0.625000 1.000000
vt 0.625000 0.750000
vt 0.375000 0.750000
vt 0.393971 0.518971
vt 0.393971 0.665355
vt 0.000000 0.000000
vt 0.375000 0.684326
vt 0.606029 0.518971
vt 0.606029 0.665355
vt 0.875000 0.684326
s 0
f 18/1/1 16/2/1 6/3/1
f 14/4/2 8/5/2 5/5/2
f 8/6/3 4/7/3 7/8/3
f 14/4/2 6/9/2 16/10/2
f 10/11/4 15/12/4 11/13/4
f 5/5/5 18/1/5 6/9/5
f 13/14/6 16/15/6 15/12/6
f 11/13/7 20/7/7 10/11/7
f 14/16/8 10/11/8 20/17/8
f 19/18/9 15/12/9 16/15/9
f 2/19/3 27/20/3 12/20/3
f 20/17/4 3/16/4 14/16/4
f 17/8/10 4/7/10 20/7/10
f 5/5/5 7/8/5 17/8/5
f 21/21/3 18/21/3 17/21/3
f 23/21/3 20/21/3 19/21/3
f 22/1/3 19/22/3 18/1/3
f 24/7/3 17/8/3 20/7/3
f 2/19/10 21/8/10 1/23/10
f 9/24/10 23/22/10 12/20/10
f 12/20/10 22/1/10 2/19/10
f 1/23/10 24/7/10 9/24/10
f 25/23/10 27/20/10 26/19/10
f 1/23/4 26/19/4 2/19/4
f 9/24/1 25/23/1 1/23/1
f 12/20/5 28/24/5 9/24/5
f 18/1/1 19/22/1 16/2/1
f 14/4/2 3/4/2 8/5/2
f 8/6/3 3/25/3 4/7/3
f 14/4/2 5/5/2 6/9/2
f 10/11/4 13/14/4 15/12/4
f 5/5/5 17/8/5 18/1/5
f 13/14/6 14/16/6 16/15/6
f 11/13/7 19/22/7 20/7/7
f 14/16/8 13/14/8 10/11/8
f 19/18/9 11/13/9 15/12/9
f 2/19/3 26/19/3 27/20/3
f 20/17/4 4/17/4 3/16/4
f 17/8/10 7/8/10 4/7/10
f 5/5/5 8/5/5 7/8/5
f 21/21/3 22/21/3 18/21/3
f 23/21/3 24/21/3 20/21/3
f 22/1/3 23/22/3 19/22/3
f 24/7/3 21/8/3 17/8/3
f 2/19/10 22/1/10 21/8/10
f 9/24/10 24/7/10 23/22/10
f 12/20/10 23/22/10 22/1/10
f 1/23/10 21/8/10 24/7/10
f 25/23/10 28/24/10 27/20/10
f 1/23/4 25/23/4 26/19/4
f 9/24/1 28/24/1 25/23/1
f 12/20/5 27/20/5 28/24/5
